<svg width="10" height="14" viewBox="0 0 10 14" fill="none" xmlns="http://www.w3.org/2000/svg">
<path d="M0.714641 14C0.591945 13.9996 0.471415 13.9648 0.36467 13.8989C0.254346 13.8314 0.162481 13.7331 0.0984777 13.6142C0.0344747 13.4953 0.000632179 13.36 0.000414085 13.2222V1.81222C-0.00924105 1.3458 0.150278 0.894027 0.444401 0.554807C0.738524 0.215587 1.14355 0.0162513 1.57171 0H8.42829C8.85645 0.0162513 9.26148 0.215587 9.5556 0.554807C9.84972 0.894027 10.0092 1.3458 9.99959 1.81222V13.2222C9.99883 13.358 9.96547 13.4911 9.90283 13.6085C9.84018 13.7258 9.75042 13.8232 9.64247 13.8911C9.5339 13.9594 9.41073 13.9953 9.28536 13.9953C9.15999 13.9953 9.03682 13.9594 8.92825 13.8911L4.87858 11.3944L1.07175 13.8833C0.964301 13.956 0.841064 13.9962 0.714641 14Z" fill="#BEBEBE"/>
</svg>
